<?xml version="1.0" encoding="UTF-8"?>
<svg width="129.33mm" height="81.742mm" version="1.1" viewBox="0 0 129.33 81.742" xmlns="http://www.w3.org/2000/svg" xmlns:cc="http://creativecommons.org/ns#" xmlns:dc="http://purl.org/dc/elements/1.1/" xmlns:rdf="http://www.w3.org/1999/02/22-rdf-syntax-ns#">
 <metadata>
  <rdf:RDF>
   <cc:Work rdf:about="">
    <dc:format>image/svg+xml</dc:format>
    <dc:type rdf:resource="http://purl.org/dc/dcmitype/StillImage"/>
    <dc:title/>
   </cc:Work>
  </rdf:RDF>
 </metadata>
 <g transform="translate(-93.308 -77.703)">
  <g transform="translate(18.442 -4.0715)">
   <g transform="translate(43.589 -93.405)">
    <g transform="translate(-61.791 97.716)">
     <path d="m138.15 77.703a40.544 40.678 0 0 0-40.544 40.678 40.544 40.678 0 0 0 40.544 40.679 40.544 40.678 0 0 0 40.544-40.679 40.544 40.678 0 0 0-40.544-40.678zm-0.13435 17.72a29.403 29.269 0 0 1 29.403 29.269 29.403 29.269 0 0 1-29.403 29.269 29.403 29.269 0 0 1-29.403-29.269 29.403 29.269 0 0 1 29.403-29.269z" fill="#9ae4e7"/>
     <g transform="translate(33.563 -1.779)">
      <path d="m79.86 85.059c4.4526 17.012 11.683 31.883 24.703 42.291 12.472 9.1888 24.903 11.868 36.692 8.4413 0.971-0.28226 1.5203-1.3743 2.3092-1.8962 0.43433 1.4202 0.75624 3.5694-1.1076 4.5312-11.362 4.1478-18.891 2.0925-27.422-0.0671-10.335-3.6977-20.031-8.8345-27.523-18.93-5.9868-7.5392-10.971-15.741-14.56-24.063-0.58824-1.3644-0.26496-2.2768-0.81293-3.6606 2.5322-2.734 5.0105-4.7972 7.7198-6.6457z" fill="#ea412c"/>
      <path d="m68.068 91.832c1.5701 10.301 9.4468 25.728 19.87 35.31 8.3049 7.6494 17.448 13.887 29.134 15.842 6.0566 1.1626 12.121 2.2809 18.527 1.3426 6.2034-0.85088 11.118-3.7646 16.514-5.9073-3.5582 3.5145-9.2526 7.3815-15.708 9.2637-15.098 4.0605-35.331-2.0316-37.86-2.8865-9.6696-3.0461-16.448-7.2768-23.226-12.822-5.6114-5.1797-11.026-10.49-15.574-16.379 1.7432-7.968 2.8136-15.967 8.3239-23.763z" fill="#ed8637"/>
      <path d="m62.832 127.68c-0.01137 2.2705 0.09299 3.4707 1.0217 6.283 0.5714 1.7303 1.6327 3.9946 3.6773 7.2769 9.6713 5.7074 20.001 9.5495 30.745 12.217 18.387 2.7212 25.895 1.1283 34.236-0.13426-10.57-0.90655-21.082-1.1136-31.819-4.0277-14.246-4.1337-26.836-11.395-37.86-21.615z" fill="#fde44a"/>
      <path d="m70.753 146.21c3.9872 4.9539 11.287 10.008 20.541 13.56 18.24 3.3754 22.91-6e-3 25.844-1.2083-7.854-0.3849-15.708-0.5742-23.562-2.6851-7.9415-2.6383-15.598-5.7763-22.824-9.6665z" fill="#699b8f"/>
     </g>
     <g transform="translate(42.333 -2.1167)">
      <path d="m106.15 104.71c-0.0407 0.0138-0.0863 0.0574-0.14727 0.11525-0.91906 0.87246-4.5272 8.3346-8.6682 17.927-0.44228 1.0245-0.87338 2.0444-0.95808 2.2665-0.15399 0.40391-0.15428 0.40428 1.5472 0.38137 1.7015-0.0228 1.7016-0.0233 2.0676-0.99684 0.37243-0.99095 1.5756-3.486 1.7513-3.6318 0.0567-0.0471 1.7373-0.0917 4.07-0.108l3.9739-0.0279 1.0128 2.3709c0.55706 1.3039 1.0193 2.3798 1.0273 2.3911 8e-3 0.0114 0.78007-4e-3 1.7157-0.0341l1.7007-0.0553-0.4222-1.2232c-0.80582-2.3328-1.8137-4.5866-4.192-9.3756-2.245-4.5207-3.2355-6.7426-3.9724-8.9101-0.30726-0.90384-0.38437-1.13-0.50643-1.0888zm64.492 0.29146c-0.27658 0.0254-0.72125 0.85641-2.0769 3.5688-2.205 4.4118-7.6724 16.405-7.6724 16.829 0 0.067 3.3338-0.0631 3.4034-0.13279 0.0549-0.0551 1.7084-3.5203 2.0608-4.3191 0.15657-0.35483 0.15627-0.35502 4.1181-0.35502 4.505 0 3.9465-0.23159 4.8922 2.0324 0.88451 2.1175 1.3053 2.7013 1.9508 2.7063 0.25611 3e-3 0.95141 0.0281 1.5451 0.0584 0.80207 0.0409 1.0795 0.0296 1.0795-0.0445 0-0.24328-1.9219-4.8083-3.4138-8.1086-0.20759-0.45924-0.63338-1.4063-0.94671-2.1048-1.9624-4.375-4.2704-9.2578-4.6922-9.9276-0.0824-0.13075-0.15585-0.21156-0.24804-0.20309zm-17.072 0.26821c-4.1618-0.0412-7.879 4.4883-5.054 8.0419 0.94734 1.1917 1.9448 1.8294 4.1858 2.6758 3.4987 1.3215 4.5231 3.2382 2.9052 5.4358-1.636 2.2224-3.9609 1.666-5.5935-1.3384-0.26569-0.48895-0.49578-0.90199-0.51108-0.91829-0.0153-0.0161-0.5983 0.0882-1.2955 0.23254-0.69723 0.1443-1.2946 0.26252-1.3276 0.26252-0.15996 0 0.30542 1.8556 0.65319 2.604 0.89137 1.9184 2.5719 3.1647 4.5832 3.3993 0.95516 0.11142 1.8656 0.0395 2.7002-0.18318 3.1983-0.85343 5.2845-3.9217 4.5154-7.3786-0.48329-2.1723-1.9123-3.5615-4.7672-4.6338-1.9042-0.71527-2.6583-1.1715-3.1419-1.9017-1.7461-2.6362 2.2332-4.5234 4.547-2.1565 0.31389 0.32111 1.0514 0.6444 1.2304 0.53952 0.18315-0.10731 1.5766-1.3292 1.5766-1.3824 0-0.3511-1.5593-2.0059-2.3291-2.4717-0.93287-0.56449-1.9169-0.81733-2.8774-0.82683zm-34.982 0.31057-0.0558 1.093c-0.0715 1.4015-0.0719 7.0593-5.3e-4 13.6l0.0563 5.1418 1.5312 0.0233 1.5312 0.0228 0.0222-3.9894 0.0222-3.9899 0.82424-0.10232c5.5422-0.68622 7.1985-1.9591 7.1629-5.5071-0.0474-4.7302-1.9153-6.0858-8.5912-6.2358zm22.6 0.0269c-1.7113 8e-5 -4.3412 0.0254-5.8441 0.0563l-2.7326 0.0558 0.0233 1.4464-0.0103 1.5644 2.342-0.0575c1.0775 0 1.7524 0.0712 1.8521 0.0848 0.20455 0.0277 0.27815 3.2599 0.28216 12.445 2e-3 4.1234 2e-3 4.1237 0.53123 4.1538 0.29104 0.0167 0.99495 0.0375 1.5642 0.0465l1.0351 0.0161-0.0403-5.609c-0.0224-3.0851-0.0584-6.8378-0.0801-8.3396l-0.0398-2.7306 1.8436-0.0336c1.2227-0.0222 2.3915-0.0786 2.3915-0.0786 6e-3 -0.70339-6e-3 -0.805-6e-3 -1.7187v-1.3017zm-18.065 3.0696c3.9046 0.10184 4.9884 4.6049 0.8785 5.656-0.63945 0.16351-2.2166 0.23484-2.2298 0.10075-0.24242-2.4569 0.0566-5.6578 0.53382-5.7159 0.28468-0.0347 0.55721-0.0476 0.81752-0.0408zm-17.434 3.1957c0.0276 0 0.39001 0.71435 0.80512 1.5875 0.4151 0.8731 1.0173 2.1334 1.3379 2.8009s0.56881 1.228 0.55191 1.2449c-0.30968 0.30967-5.0354 0.0954-4.9113-0.22273 0.79167-2.0294 2.1767-5.4105 2.2164-5.4105zm64.962 0.0878c0.22217-0.0111 2.0812 4.3393 2.3053 5.3945 0.0584 0.27517 0.0585 0.27491-2.4458 0.27491-1.3774 0-2.5042-0.0145-2.5042-0.032 0-0.0651 0.25293-0.63307 0.77824-1.7462 0.29669-0.62865 0.82432-1.7606 1.172-2.5156s0.66014-1.3736 0.69454-1.3756z" color="#000000" color-rendering="auto" dominant-baseline="auto" image-rendering="auto" shape-rendering="auto" solid-color="#000000" stop-color="#000000" style="font-feature-settings:normal;font-variant-alternates:normal;font-variant-caps:normal;font-variant-east-asian:normal;font-variant-ligatures:normal;font-variant-numeric:normal;font-variant-position:normal;font-variation-settings:normal;inline-size:0;isolation:auto;mix-blend-mode:normal;shape-margin:0;shape-padding:0;text-decoration-color:#000000;text-decoration-line:none;text-decoration-style:solid;text-indent:0;text-orientation:mixed;text-transform:none;white-space:normal"/>
      <text transform="scale(.97874 1.0217)" x="99.358047" y="99.97892" fill="#000000" font-family="'Taipei Sans TC Beta'" font-size="11.234px" stroke-width=".23403" style="line-height:1.25" xml:space="preserve"><tspan x="99.358047" y="99.97892" fill="#000000" font-family="Arial" font-size="3.4325px" font-weight="bold" stroke-width=".23403" style="font-variant-caps:normal;font-variant-east-asian:normal;font-variant-ligatures:normal;font-variant-numeric:normal">ASIA PHYSICAL THERAPY STUDENT ASSOCIATION</tspan></text>
     </g>
    </g>
   </g>
  </g>
 </g>
</svg>
