<?xml version="1.0" encoding="UTF-8"?>
<svg width="880.16" height="576.27" data-name="Layer 1" version="1.1" viewBox="0 0 880.16 576.27" xmlns="http://www.w3.org/2000/svg" xmlns:cc="http://creativecommons.org/ns#" xmlns:dc="http://purl.org/dc/elements/1.1/" xmlns:rdf="http://www.w3.org/1999/02/22-rdf-syntax-ns#">
 <metadata>
  <rdf:RDF>
   <cc:Work rdf:about="">
    <dc:format>image/svg+xml</dc:format>
    <dc:type rdf:resource="http://purl.org/dc/dcmitype/StillImage"/>
    <dc:title/>
   </cc:Work>
  </rdf:RDF>
 </metadata>
 <circle cx="435.55" cy="71.266" r="26.701" fill="#EA6C33"/>
 <path transform="translate(-159.92 -161.86)" d="m655.23 220.49a13.235 13.235 0 0 0-11.17-9.29 1.0807 1.0807 0 0 0-0.18 0 1.4183 1.4183 0 0 0-0.22-0.05c-8.94-1.16-18.88 1.66-25.57 7.8a23.958 23.958 0 0 0-5.83 8.04 12.917 12.917 0 0 0-10.83-5.28 13.184 13.184 0 0 0-11.8 9.51 1.5265 1.5265 0 0 0 0.69 1.69 6.673 6.673 0 0 0 2.79 1.42c2.21 0.47 4.44 0.9 6.67 1.29q6.54 1.14 13.15 1.85 4.365 0.465 8.75 0.74c6.04 0.38 12.11 0.47 18.16 0.28 3-0.1 5.88-0.2 8.62-1.52a12.798 12.798 0 0 0 4.95-4.31 14.548 14.548 0 0 0 1.82-12.17z" fill="#e6e6e6"/>
 <path transform="translate(-159.92 -161.86)" d="m600.3 259.39a13.652 13.652 0 0 0-0.56-3.3 13.26 13.26 0 0 0-11.18-9.29 0.9647 0.9647 0 0 0-0.17 0 1.8873 1.8873 0 0 0-0.23-0.05 33.194 33.194 0 0 0-14.69 1.51c-7.26 2.43-13.63 7.33-16.7 14.33a12.922 12.922 0 0 0-10.84-5.28 13.183 13.183 0 0 0-11.8 9.51 1.5553 1.5553 0 0 0 0.69 1.69 6.7329 6.7329 0 0 0 2.79 1.42c2.22 0.47 4.44 0.9 6.68 1.29q6.54 1.14 13.14 1.85a195.16 195.16 0 0 0 26.92 1.02c2.99-0.1 5.88-0.2 8.62-1.52a12.77 12.77 0 0 0 4.94-4.31 14.265 14.265 0 0 0 2.39-8.87z" fill="#e6e6e6"/>
 <g fill="#f2f2f2">
  <path transform="translate(-159.92 -161.86)" d="m948.05 583.38a171.86 171.86 0 0 1-7.4426 53.773c-0.18624 0.63255-0.40951 1.2651-0.63278 1.8979h-109.56a98.322 98.322 0 0 1 7.4056-22.328c9.117-19.351 24.002-35.911 38.701-52.359 20.244-22.663 40.004-45.139 43.13-74.612a169.26 169.26 0 0 1 19.053 39.334 46.231 46.231 0 0 0-15.294 9.3775c-1.2281 1.1536-2.5307 2.8282-1.8979 4.4284 0.5953 1.3396 2.2327 1.7864 3.684 2.0839 3.498 0.66981 6.9961 1.3396 10.494 1.9724 2.7537 0.558 5.5447 1.0791 8.3357 1.6001a182.73 182.73 0 0 1 4.0191 34.831z"/>
  <path transform="translate(-159.92 -161.86)" d="m1040.1 571.32c-17.565 10.68-28.729 27.203-37.846 45.697a46.743 46.743 0 0 0-21.249 11.164c-1.2653 1.1538-2.5677 2.8282-1.8979 4.4284 0.55829 1.3398 2.2329 1.7864 3.684 2.0839 3.4608 0.67 6.9961 1.3398 10.457 1.9724-0.33479 0.78155-0.6698 1.6001-1.0046 2.3817h-116.1a164.17 164.17 0 0 1 17.453-19.946c1.3769-1.3771 2.791-2.6794 4.2423-4.0191a173.65 173.65 0 0 1 50.238-31.706 176.73 176.73 0 0 1 92.028-12.057z"/>
  <path transform="translate(-159.92 -161.86)" d="m895.47 639.05h-103.38a167.93 167.93 0 0 1 0.149-24.858c4.1306-51.094 31.929-99.768 73.868-129.24-5.3587 19.09-2.605 38.069 2.977 57.122-0.78133 0.26052-1.5629 0.48379-2.2699 0.78133a46.236 46.236 0 0 0-15.294 9.3778c-1.2281 1.1536-2.5305 2.8282-1.8979 4.4284 0.55806 1.3396 2.2327 1.7862 3.684 2.0839 3.498 0.6698 6.9961 1.3396 10.457 1.9724 2.791 0.558 5.582 1.0791 8.3729 1.6374 1.3024 0.22326 2.605 0.48356 3.9073 0.74407 0.186 0.44654 0.29777 0.85606 0.48379 1.2654 6.5495 18.048 13.694 36.245 17.044 54.74a127.78 127.78 0 0 1 1.7119 14.029c0.11159 1.9724 0.18606 3.9446 0.18606 5.917z"/>
  <path transform="translate(-159.92 -161.86)" d="m332.05 583.38a171.86 171.86 0 0 1-7.4426 53.773c-0.18624 0.63255-0.40951 1.2651-0.63278 1.8979h-109.56a98.322 98.322 0 0 1 7.4056-22.328c9.117-19.351 24.002-35.911 38.701-52.359 20.244-22.663 40.004-45.139 43.13-74.612a169.26 169.26 0 0 1 19.053 39.334 46.231 46.231 0 0 0-15.294 9.3775c-1.2281 1.1536-2.5307 2.8282-1.8979 4.4284 0.5953 1.3396 2.2327 1.7864 3.684 2.0839 3.498 0.66981 6.9961 1.3396 10.494 1.9724 2.7537 0.558 5.5447 1.0791 8.3357 1.6001a182.73 182.73 0 0 1 4.0191 34.831z"/>
  <path transform="translate(-159.92 -161.86)" d="m424.08 571.32c-17.565 10.68-28.729 27.203-37.846 45.697a46.743 46.743 0 0 0-21.249 11.164c-1.2653 1.1538-2.5677 2.8282-1.8979 4.4284 0.55829 1.3398 2.2329 1.7864 3.684 2.0839 3.4608 0.67 6.9961 1.3398 10.457 1.9724-0.33479 0.78155-0.6698 1.6001-1.0046 2.3817h-116.1a164.17 164.17 0 0 1 17.453-19.946c1.3769-1.3771 2.791-2.6794 4.2423-4.0191a173.65 173.65 0 0 1 50.238-31.706 176.73 176.73 0 0 1 92.028-12.057z"/>
  <path transform="translate(-159.92 -161.86)" d="m279.47 639.05h-103.38a167.93 167.93 0 0 1 0.149-24.858c4.1306-51.094 31.929-99.768 73.868-129.24-5.3587 19.09-2.605 38.069 2.977 57.122-0.78133 0.26052-1.5629 0.48379-2.2699 0.78133a46.236 46.236 0 0 0-15.294 9.3778c-1.2281 1.1536-2.5305 2.8282-1.8979 4.4284 0.55806 1.3396 2.2327 1.7862 3.684 2.0839 3.498 0.6698 6.9961 1.3396 10.457 1.9724 2.791 0.558 5.582 1.0791 8.3729 1.6374 1.3024 0.22326 2.605 0.48356 3.9073 0.74407 0.186 0.44654 0.29777 0.85606 0.48379 1.2654 6.5495 18.048 13.694 36.245 17.044 54.74a127.78 127.78 0 0 1 1.7119 14.029c0.11159 1.9724 0.18606 3.9446 0.18606 5.917z"/>
 </g>
 <g fill="#e6e6e6">
  <path transform="translate(-159.92 -161.86)" d="m664.33 595.64 92.37 8.2 0.99 0.09v-394.14q-0.49494-0.345-0.99-0.69a288.32 288.32 0 0 0-62.01-32.94l-4.72 65.1-0.43 5.96-4.67 64.56-1.44 19.86-18.93 261.7z"/>
  <path transform="translate(-159.92 -161.86)" d="m435.9 202.45c-0.66 0.42-1.32 0.84-1.98 1.28v400.2l1.98-0.18 91.37-8.11-0.17-2.3-18.93-261.7-1.44-19.86-4.67-64.56-0.43-5.96-4.95-68.27a287.69 287.69 0 0 0-60.78 29.46z"/>
  <path transform="translate(-159.92 -161.86)" d="m433.92 203.73c-1.33 0.86-2.66 1.74-3.97 2.63v403.03c0 10.07 5.97 18.51 13.95 20.66a15.249 15.249 0 0 0 4 0.53h296.8a15.118 15.118 0 0 0 3.99-0.53 17.06 17.06 0 0 0 7.78-4.66 22.919 22.919 0 0 0 6.18-16v-396.02c-1.64-1.21-3.29-2.41-4.96-3.58q-0.49494-0.345-0.99-0.69v400.29a16.108 16.108 0 0 1-0.46 3.85c-1.41 5.95-6.06 10.31-11.54 10.31h-296.8c-6.62 0-12-6.35-12-14.16v-406.94c-0.66006 0.42001-1.32 0.83999-1.98 1.28z"/>
  <rect x="273" y="79.404" width="326.75" height="5.959"/>
  <path transform="translate(-159.92 -161.86)" d="m659.6 165.25c-1.98-0.49-3.96-0.95-5.96-1.38v161.81h5.96z"/>
  <path transform="translate(-159.92 -161.86)" d="m538.96 161.86c-1.99 0.37-3.98 0.75-5.96 1.16v162.66h5.96z"/>
  <path transform="translate(-159.92 -161.86)" d="m368.86 620.15a26.711 26.711 0 0 0 1.93 9.98 25.54 25.54 0 0 0 1.75 3.56 27.096 27.096 0 0 0 3.02 4.18 26.76 26.76 0 0 0 20.12 9.11h391.31a26.82 26.82 0 0 0 0-53.64h-391.31a26.846 26.846 0 0 0-26.82 26.81z"/>
  <rect transform="translate(1030.7 481.57) rotate(180)" x="432.92" y="311.78" width="324.77" height="19.863"/>
  <path transform="translate(1030.7 460.71) rotate(180)" d="m581.4 305.82h27.809a10.925 10.925 0 0 1-10.925 10.925h-5.959a10.925 10.925 0 0 1-10.925-10.925 0 0 0 0 1-7e-5 0z"/>
 </g>
 <path transform="translate(-159.92 -161.86)" d="m159.92 635.47a289 289 0 0 0 28.12 28.95h806.58a289 289 0 0 0 28.12-28.95z" fill="#3f3d56"/>
 <path transform="translate(-159.92 -161.86)" d="m556.61 538.66v102.56h71.85v-102.56a3.448 3.448 0 0 0-2.43-3.3 3.1746 3.1746 0 0 0-1.03-0.16h-64.92a3.4633 3.4633 0 0 0-3.47 3.46zm28.04 35.24a7.6703 7.6703 0 0 1 15.34 0v11.9a7.6701 7.6701 0 0 1-15.34 0z" fill="#2f2e41"/>
 <path transform="translate(-159.92 -161.86)" d="m556.39 637.94v9.89a1.9462 1.9462 0 0 0 1.93 1.94h68.43a1.9397 1.9397 0 0 0 1.93-1.94v-9.89z" fill="#3f3d56"/>
 <path transform="translate(-159.92 -161.86)" d="m443.58 384.14v187.26a9.0071 9.0071 0 0 0 9 9h277.5a9.0071 9.0071 0 0 0 9-9v-187.26a9.0115 9.0115 0 0 0-9-8.99h-277.5a9.0115 9.0115 0 0 0-9 8.99z" fill="#3f3d56"/>
 <path transform="translate(-159.92 -161.86)" d="m450.09 386.47v182.62a4.8183 4.8183 0 0 0 4.81 4.81h272.87a4.8183 4.8183 0 0 0 4.81-4.81v-182.62a4.8205 4.8205 0 0 0-4.81-4.82h-272.87a4.8205 4.8205 0 0 0-4.81 4.82z" fill="#189AB4"/>
 <path transform="translate(-159.92 -161.86)" d="m505.73 652.1a2.9484 2.9484 0 0 0 2.32 1.11h162.34a2.9872 2.9872 0 0 0 2.92-3.6l-2.52-11.97a2.9926 2.9926 0 0 0-1.86-2.17 2.8945 2.8945 0 0 0-1.06-0.2h-157.31a2.8942 2.8942 0 0 0-1.06 0.2 2.9924 2.9924 0 0 0-1.86 2.17l-2.52 11.97a2.9849 2.9849 0 0 0 0.60993 2.49z" fill="#2f2e41"/>
 <g fill="#3f3d56">
  <rect transform="translate(1168.5 1116) rotate(180)" x="661.72" y="637.43" width="5" height="3" rx=".48819"/>
  <rect transform="translate(1148.5 1116) rotate(180)" x="651.72" y="637.43" width="5" height="3" rx=".48819"/>
  <rect transform="translate(1128.5 1116) rotate(180)" x="641.72" y="637.43" width="5" height="3" rx=".48819"/>
  <rect transform="translate(1108.5 1116) rotate(180)" x="631.72" y="637.43" width="5" height="3" rx=".48819"/>
  <rect transform="translate(1088.5 1116) rotate(180)" x="621.72" y="637.43" width="5" height="3" rx=".48819"/>
  <rect transform="translate(1068.5 1116) rotate(180)" x="611.72" y="637.43" width="5" height="3" rx=".48819"/>
  <rect transform="translate(1048.5 1116) rotate(180)" x="601.72" y="637.43" width="5" height="3" rx=".48819"/>
  <rect transform="translate(1028.5 1116) rotate(180)" x="591.72" y="637.43" width="5" height="3" rx=".48819"/>
  <rect transform="translate(1008.5 1116) rotate(180)" x="581.72" y="637.43" width="5" height="3" rx=".48819"/>
  <rect transform="translate(988.51 1116) rotate(180)" x="571.72" y="637.43" width="5" height="3" rx=".48819"/>
  <rect transform="translate(968.51 1116) rotate(180)" x="561.72" y="637.43" width="5" height="3" rx=".48819"/>
  <rect transform="translate(948.51 1116) rotate(180)" x="551.72" y="637.43" width="5" height="3" rx=".48819"/>
  <rect transform="translate(928.51 1116) rotate(180)" x="541.72" y="637.43" width="5" height="3" rx=".48819"/>
  <rect transform="translate(908.51 1116) rotate(180)" x="531.72" y="637.43" width="5" height="3" rx=".48819"/>
  <rect transform="translate(888.51 1116) rotate(180)" x="521.72" y="637.43" width="5" height="3" rx=".48819"/>
  <rect transform="translate(868.51 1116) rotate(180)" x="511.72" y="637.43" width="5" height="3" rx=".48819"/>
  <rect transform="translate(1168.8 1126) rotate(180)" x="661.84" y="642.43" width="5" height="3" rx=".48819"/>
  <rect transform="translate(1148.8 1126) rotate(180)" x="651.84" y="642.43" width="5" height="3" rx=".48819"/>
  <rect transform="translate(1128.8 1126) rotate(180)" x="641.84" y="642.43" width="5" height="3" rx=".48819"/>
  <rect transform="translate(1108.8 1126) rotate(180)" x="631.84" y="642.43" width="5" height="3" rx=".48819"/>
  <rect transform="translate(1088.8 1126) rotate(180)" x="621.84" y="642.43" width="5" height="3" rx=".48819"/>
  <rect transform="translate(1068.8 1126) rotate(180)" x="611.84" y="642.43" width="5" height="3" rx=".48819"/>
  <rect transform="translate(1048.8 1126) rotate(180)" x="601.84" y="642.43" width="5" height="3" rx=".48819"/>
  <rect transform="translate(1028.8 1126) rotate(180)" x="591.84" y="642.43" width="5" height="3" rx=".48819"/>
  <rect transform="translate(1008.8 1126) rotate(180)" x="581.84" y="642.43" width="5" height="3" rx=".48819"/>
  <rect transform="translate(988.75 1126) rotate(180)" x="571.84" y="642.43" width="5" height="3" rx=".48819"/>
  <rect transform="translate(968.75 1126) rotate(180)" x="561.84" y="642.43" width="5" height="3" rx=".48819"/>
  <rect transform="translate(948.75 1126) rotate(180)" x="551.84" y="642.43" width="5" height="3" rx=".48819"/>
  <rect transform="translate(928.75 1126) rotate(180)" x="541.84" y="642.43" width="5" height="3" rx=".48819"/>
  <rect transform="translate(908.75 1126) rotate(180)" x="531.84" y="642.43" width="5" height="3" rx=".48819"/>
  <rect transform="translate(888.75 1126) rotate(180)" x="521.84" y="642.43" width="5" height="3" rx=".48819"/>
  <rect transform="translate(868.75 1126) rotate(180)" x="511.84" y="642.43" width="5" height="3" rx=".48819"/>
  <rect transform="translate(1037.8 1138) rotate(180)" x="578.84" y="648.43" width="40" height="3" rx=".48819"/>
  <path transform="translate(-159.92 -161.86)" d="m468.61 406.81h255.32a1.0156 1.0156 0 0 0 0-2.0307h-255.32a1.0156 1.0156 0 0 0 0 2.0307z"/>
  <ellipse cx="546.64" cy="231.65" rx="5.9504" ry="6.083"/>
  <ellipse cx="526.08" cy="231.65" rx="5.9504" ry="6.083"/>
  <ellipse cx="505.52" cy="231.65" rx="5.9504" ry="6.083"/>
  <path transform="translate(-159.92 -161.86)" d="m479.9 390.04a1.0948 1.0948 0 0 0 1.09 1.1h14.6a1.1053 1.1053 0 0 0 0-2.21h-14.6a1.1034 1.1034 0 0 0-1.09 1.11z"/>
  <path transform="translate(-159.92 -161.86)" d="m479.9 394.19a1.0948 1.0948 0 0 0 1.09 1.1h14.6a1.1053 1.1053 0 0 0 0-2.21h-14.6a1.1034 1.1034 0 0 0-1.09 1.11z"/>
  <path transform="translate(-159.92 -161.86)" d="m479.9 398.33a1.1034 1.1034 0 0 0 1.09 1.11h14.6a1.1053 1.1053 0 0 0 0-2.21h-14.6a1.0948 1.0948 0 0 0-1.09 1.1z"/>
 </g>
 <g fill="#e6e6e6">
  <rect x="316.37" y="268.54" width="11.006" height="5.7599" rx="2.88"/>
  <rect x="376.37" y="268.54" width="11.006" height="5.7599" rx="2.88"/>
  <rect x="393.37" y="268.54" width="11.006" height="5.7599" rx="2.88"/>
  <rect x="332.69" y="268.06" width="38.366" height="5.7599" rx="2.88"/>
  <rect x="412.69" y="268.06" width="38.366" height="5.7599" rx="2.88"/>
  <rect x="332.37" y="281.54" width="11.006" height="5.7599" rx="2.88"/>
  <rect x="392.37" y="281.54" width="11.006" height="5.7599" rx="2.88"/>
  <rect x="409.37" y="281.54" width="11.006" height="5.7599" rx="2.88"/>
  <rect x="348.69" y="281.06" width="38.366" height="5.7599" rx="2.88"/>
  <rect x="428.69" y="281.06" width="38.366" height="5.7599" rx="2.88"/>
  <rect x="348.37" y="294.54" width="11.006" height="5.7599" rx="2.88"/>
  <rect x="408.37" y="294.54" width="11.006" height="5.7599" rx="2.88"/>
  <rect x="425.37" y="294.54" width="11.006" height="5.7599" rx="2.88"/>
  <rect x="364.69" y="294.06" width="38.366" height="5.7599" rx="2.88"/>
  <rect x="444.69" y="294.06" width="38.366" height="5.7599" rx="2.88"/>
  <rect x="364.37" y="307.54" width="11.006" height="5.7599" rx="2.88"/>
  <rect x="424.37" y="307.54" width="11.006" height="5.7599" rx="2.88"/>
  <rect x="441.37" y="307.54" width="11.006" height="5.7599" rx="2.88"/>
  <rect x="380.69" y="307.06" width="38.366" height="5.7599" rx="2.88"/>
  <rect x="376.37" y="359.24" width="11.006" height="5.7599" rx="2.88"/>
  <rect x="393.37" y="359.24" width="11.006" height="5.7599" rx="2.88"/>
  <rect x="412.69" y="359.72" width="38.366" height="5.7599" rx="2.88"/>
  <rect x="316.37" y="359.24" width="11.006" height="5.7599" rx="2.88"/>
  <rect x="332.69" y="359.72" width="38.366" height="5.7599" rx="2.88"/>
  <rect x="332.37" y="346.24" width="11.006" height="5.7599" rx="2.88"/>
  <rect x="392.37" y="346.24" width="11.006" height="5.7599" rx="2.88"/>
  <rect x="409.37" y="346.24" width="11.006" height="5.7599" rx="2.88"/>
  <rect x="348.69" y="346.72" width="38.366" height="5.7599" rx="2.88"/>
  <rect x="348.37" y="333.24" width="11.006" height="5.7599" rx="2.88"/>
  <rect x="408.37" y="333.24" width="11.006" height="5.7599" rx="2.88"/>
  <rect x="425.37" y="333.24" width="11.006" height="5.7599" rx="2.88"/>
  <rect x="364.69" y="333.72" width="38.366" height="5.7599" rx="2.88"/>
  <rect x="364.37" y="320.24" width="11.006" height="5.7599" rx="2.88"/>
  <rect x="424.37" y="320.24" width="11.006" height="5.7599" rx="2.88"/>
  <rect x="441.37" y="320.24" width="11.006" height="5.7599" rx="2.88"/>
  <rect x="380.69" y="320.72" width="38.366" height="5.7599" rx="2.88"/>
 </g>
 <path transform="translate(-159.92 -161.86)" d="M509.83187,707.8161c-.22.11005-.44.22-.66.32q-2.085,1.035-4.2,2.04-6.33,3.015-12.82,5.73a285.48273,285.48273,0,0,1-34.97,12.03c-2-12.47-3.94-41.88-5.8-63.51-.35-4.07-.7-7.86005-1.05-11.21a97.15525,97.15525,0,0,0-1.89-13.08,4.35915,4.35915,0,0,0-.39-.97c.19,1.73.39,6.89.58,14.05.1,3.35.19,7.14.29,11.21.47,20.82.96,49.15,1.45,65.28-1.39.34-2.79.68-4.19,1-.88.21-1.77.41-2.66.6-1.08.24-2.16.48-3.24.69995q-1.695.36009-3.39.69a290.07234,290.07234,0,0,1-56.06,5.44c-1.25,0-2.49-.01-3.74-.02-.38,0-.76-.01-1.15-.02-1.1-.02-2.24-.04-3.4-.07a288.5911,288.5911,0,0,1-65.84-9.49l.87-64.11.15-11.21.06-4.25a15.1823,15.1823,0,0,0-.88,4.25c-.35,2.73-.71,6.6-1.07,11.21-1.37,17.76-2.78,46.41-4.24,62.71-17.29-4.92-29.93-9.41-45.73-17.31-.61005-.3-1.23-.61-1.84-.92.11-.77.23-1.54.34-2.33,1.79-12.44-.32-28.63,1.66-42.15,1.51-10.43,3.07-20.45,4.64-28.95,1.9-10.23,3.82995-18.27,5.74-22.18,2.2-4.51,4.4-8.95,6.53-13.2q1.38006-2.745,2.71-5.39c.48-.95.96-1.89,1.43-2.81,2.14-4.19,4.16-8.06,6.01-11.49,1.3-2.41,2.5-4.59,3.6-6.5,1.29-2.25,2.43-4.11,3.37-5.52a55.3059,55.3059,0,0,1,29.28-22.21l.3-.08.29.12.32995.15,19.06-6.97,8.51-20.49,43.71-2.69,7.06,5.37,3.61,2.75,3.85,2.93,7.08,5.39,2.01.62,2.99.92,20.45,6.28.21-.09.3.08a55.16791,55.16791,0,0,1,27.36,19.5c.68.88,1.31,1.79,1.92,2.71,1.66,2.46,3.9,6.35,6.54,11.23,1.09,2.01,2.24,4.19,3.45,6.5.73,1.39,7.03,21.05,13.16,41.13,5.73,18.8,11.31,37.97,12.04,42.89.13.91.27,1.82995.4,2.74.83,5.69,1.65,11.42,2.44,17.01,1.17,8.29,2.31,16.29,3.4,23.44C509.81185,707.68616,509.82186,707.74616,509.83187,707.8161Z" fill="#3f3d56"/>
 <polygon points="303.59 473.57 295.09 440.77 287.59 469.07" opacity=".2"/>
 <path transform="translate(-159.92 -161.86)" d="m175.75 635.05a6.4162 6.4162 0 0 0 6.1831 4.331l26.492-0.68178a6.3285 6.3285 0 0 0 5.9808-4.657l3.7489-40.087a9.794 9.794 0 0 0 4.2379 0.87079 9.6613 9.6613 0 0 0-0.48489-19.317 8.1839 8.1839 0 0 0-1.7362 0.18056 6.5477 6.5477 0 0 0-4.874-2.103l-40.751 1.0523a5.8542 5.8542 0 0 0-1.0052 0.1248 6.3646 6.3646 0 0 0-4.8732 8.2646zm43.173-43.817 2.6676-9.5527a6.5064 6.5064 0 0 0 0.02037-3.3746c0.12944-3.4e-4 0.24363-0.06168 0.37306-0.062a6.9105 6.9105 0 0 1 0.32358 13.817 6.5052 6.5052 0 0 1-3.3846-0.82782z" fill="#2f2e41"/>
 <path transform="translate(-159.92 -161.86)" d="m173.54 574.76c0.86818 4.9641 10.629 8.4539 22.366 7.8473 10.793-0.49726 19.617-4.287 21.234-8.7785a6.025 6.025 0 0 0-1.8444-0.24588l-40.751 1.0523a5.8542 5.8542 0 0 0-1.0052 0.1248z" fill="#3f3d56"/>
 <g fill="#A3E5E5">
  <path transform="translate(-159.92 -161.86)" d="M198.05786,613.02141a.49675.49675,0,0,0,.15092-.06642l5.75315-3.76566a.49923.49923,0,0,0,.00032-.83621l-5.97979-3.91667a.49972.49972,0,1,0-.54792.83585l5.34091,3.49818-5.114,3.34794a.49991.49991,0,0,0,.39637.903Z"/>
  <path transform="translate(-159.92 -161.86)" d="M188.97111,613.44045a.5.5,0,0,0,.12607-.91842l-5.30305-3.04034,5.1256-3.80723a.49963.49963,0,1,0-.596-.80208l-5.73863,4.26265a.49951.49951,0,0,0,.04918.83476l5.96526,3.41968A.49965.49965,0,0,0,188.97111,613.44045Z"/>
  <path transform="translate(-159.92 -161.86)" d="M197.48564,616.32142a.482.482,0,0,0,.137-.05785.49976.49976,0,0,0,.16751-.68714l-8.15548-13.40836a.50026.50026,0,0,0-.85441.52058L196.9357,616.097A.50033.50033,0,0,0,197.48564,616.32142Z"/>
 </g>
 <path transform="translate(-159.92 -161.86)" d="M945.069,708.90387c-.61.31-1.23.62-1.84.92-15.8,7.9-28.44,12.39-45.73,17.31-1.46-16.3-2.87-44.95-4.24-62.71-.36-4.61-.72-8.48-1.07-11.21a15.18215,15.18215,0,0,0-.88-4.25l.06,4.25.15,11.21.87,64.11a288.5879,288.5879,0,0,1-65.84,9.49c-1.16.03-2.3.05-3.4.07-.39.01-.77.02-1.15.02-1.25.01-2.49.02-3.74.02a289.2711,289.2711,0,0,1-69.54-8.43c.49-16.13.98-44.46,1.44995-65.28.1-4.07.19-7.86.29-11.21.19-7.16.39-12.32.58-14.05a4.36163,4.36163,0,0,0-.39.97,97.15388,97.15388,0,0,0-1.89,13.08c-.35,3.35-.7,7.14-1.05,11.21-1.86,21.63-3.8,51.04-5.8,63.51a285.47262,285.47262,0,0,1-34.97-12.03q-9-3.75-17.68-8.09c1.1-7.2,2.25-15.27,3.43-23.64.92-6.49,1.87-13.16,2.84-19.75,1.5-10.18,52.46-120.11,64.47-123.96l.3-.08.21.09,20.45-6.28,2.99-.92,2.01-.62,7.08-5.39,3.85-2.93,3.61-2.75,7.06-5.37,43.71,2.69,8.51,20.49,19.06,6.97.33-.15.29-.12.3.08a55.306,55.306,0,0,1,29.28,22.21c.94,1.41,2.08,3.27,3.37,5.52,1.1,1.91,2.3,4.09,3.6,6.5,1.85,3.43005,3.87,7.30005,6.01,11.49.47.92.95,1.86,1.43,2.81q1.335,2.63993,2.71,5.38995c2.13,4.25,4.33,8.69,6.53,13.2,1.91,3.91,3.84,11.95,5.74,22.18,1.57,8.5,3.13,18.52,4.64,28.95,1.98,13.52-.13,29.71,1.66,42.15C944.83905,707.36389,944.95905,708.13391,945.069,708.90387Z" fill="#3f3d56"/>
 <circle cx="656.95" cy="296.16" r="50.836" fill="#ffb6b6"/>
 <polygon points="575.66 473.57 584.16 440.77 591.66 469.07" opacity=".2"/>
 <path transform="translate(-159.92 -161.86)" d="m961.69 614.06c-3.04 41.88 0.11 60.32-16.67 94.85a286.16 286.16 0 0 1-47.52 18.22q-2.55 0.72-5.11 1.4a288.59 288.59 0 0 1-65.84 9.49c-1.16 0.03-2.3 0.05-3.4 0.07-0.39 0.01-0.77 0.02-1.15 0.02-1.25 0.01-2.49 0.02-3.74 0.02a289.27 289.27 0 0 1-69.54-8.43q-3.42-0.84-6.81-1.77a285.47 285.47 0 0 1-34.97-12.03q-9-3.75-17.68-8.09c-1.31-0.66-2.62-1.32-3.91-2-6.63-11.66-10.4-25.84-10.48-42.88 4.59-29.36 276.68-74.19 286.82-48.87z" fill="#2f2e41"/>
 <path transform="translate(-159.92 -161.86)" d="m961.68 621.24c0.15528-2.5927 0.32886-5.2709 0.53132-8.0599-10.14-25.32-282.23 19.51-286.82 48.87 0.01263 2.6918 0.12774 5.3041 0.32129 7.8546 11.116-28.978 269.6-71.586 285.97-48.665z" opacity=".2"/>
 <path transform="translate(-159.92 -161.86)" d="m668.1 616.04 22.334-11.167-18.611-50.251-4.9049-25.342a19.161 19.161 0 0 0-31.282-10.907 19.161 19.161 0 0 0-2.4925 26.518l18.207 22.759z" fill="#ffb6b6"/>
 <path transform="translate(-159.92 -161.86)" d="m690.44 595.57-29.778 14.889 22.599 70.809a30.977 30.977 0 0 0 22.336 20.716 30.977 30.977 0 0 0 33.737-14.197l59.925-102.71a31.62 31.62 0 0 0-10.196-42.982 31.62 31.62 0 0 0-45.296 12.765l-36.576 77.936z" fill="#3f3d56"/>
 <circle cx="209.51" cy="287.55" r="55.935" fill="#a0616a"/>
 <g fill="#2f2e41">
  <path transform="translate(-159.92 -161.86)" d="m314.16 410.87c4.5479-6.1298 11.085-10.488 16.085-16.255 2.7434-3.1643 5.0214-6.7495 8.1057-9.5822 5.7304-5.2632 13.744-7.4198 21.52-7.688a54.305 54.305 0 0 1 44.331 21.038q6.0968-3.5747 12.194-7.1493 2.4087 6.3397 4.8174 12.68a7.3907 7.3907 0 0 1 11.264 9.248c0.96724-2.989 5.3992-3.6231 7.8425-1.6486 2.4434 1.9747 3.0976 5.488 2.6991 8.6041a17.32 17.32 0 0 1-13.065 14.326c-5.3041 1.1817-11.477-0.05973-15.723 3.3325-3.4035 2.7195-4.431 7.6716-7.9043 10.301-4.2801 3.2404-10.329 1.7418-15.65 2.4578-9.3081 1.253-16.678 10.773-15.56 20.098-0.84211-2.9425-1.7271-5.9701-3.6385-8.3603-1.9115-2.3902-5.1308-4.0067-8.0624-3.128-4.8458 1.4525-5.6386 8.0577-4.4642 12.978 3.1148 13.05 14.919 34.144 14.919 34.144-15.328 6.0462-33.589 0.329-45.415-11.144-11.826-11.473-17.986-27.719-20.669-43.976-2.2752-13.786-1.9527-29.056 6.3727-40.277z"/>
  <path transform="translate(-159.92 -161.86)" d="m880.58 486.05c10.642-24.398 4.6128-46.85-8.36-58.76v-0.01c-5.1-11.43-11.88-20.25-19.64-22.32-3.75-2.41-7.39-5.24-11.43-6.68a14.887 14.887 0 0 0-11.68 0.53l-2.06-0.55c-1.75-4.47-3.8-4.56-6.08-1.62-8.78-4.09-16.69-5.92-23.73-5.92-22.96 0-36.54 19.44-40.14 42.94l19.19 5.11 6.67-10.63-3.08 11.59 10.59 2.81c16.12 20.99-3.17 69.41-27.62 96.35q8.73-2.415 17.39-4.08l20.98-30.76-13 28c6.75-0.99 15.36-0.04 24.77 1.87 3.17-4.14 4.84-9.66 3.2-14.58a55.745 55.745 0 0 1 5.48 16.53c19.86 4.85 46.95 7.34 61.55 9.18 11.796-3.8506 11.828-47.34-3-59z"/>
  <path transform="translate(-159.92 -161.86)" d="m887.51 403.05c7.7946 17.453-7.9332 24.96-22.341 24.748-13.019-0.19157-24.084-9.3379-24.748-22.341a23.576 23.576 0 0 1 22.341-24.748c13.003-0.66467 19.439 10.453 24.748 22.341z"/>
 </g>
 <path transform="translate(-159.92 -161.86)" d="m525.9 687.17-12.84-21.416 42.691-32.388 17.75-18.741a19.161 19.161 0 0 1 32.245 7.6035 19.161 19.161 0 0 1-12.142 23.707l-27.583 9.4165z" fill="#a0616a"/>
 <path transform="translate(-159.92 -161.86)" d="M535.18185,686.46613l-19.99,16.66-5.39,4.49-.62994.52q-2.085,1.035-4.2,2.04-6.33,3.015-12.82,5.73a285.48273,285.48273,0,0,1-34.97,12.03q-3.38993.93-6.81,1.77c-1.39.34-2.79.68-4.19,1-.88.21-1.77.41-2.66.6-1.08.24-2.16.48-3.24.69995q-1.695.36009-3.39.69a30.96327,30.96327,0,0,1-9.62-22.44c0-.26995,0-.55.01-.82995l3.21-82.33,1.42005-36.49a31.618,31.618,0,0,1,31.69-30.78c.96,0,1.91.05,2.85.14.68.88,1.31,1.79,1.92,2.71,1.66,2.46,3.9,6.35,6.54,11.23,1.09,2.01,2.24,4.19,3.45,6.5.73,1.39,7.03,21.05,13.16,41.13l-2.7,20.97-4.88,37.80005,20.02-13.14,14.1-9.26,1.67,2.79,4.35,7.26,8.4,14Z" fill="#3f3d56"/>
 <path transform="translate(-159.92 -161.86)" d="m524.22 662.94c-0.01 1.7-0.05 3.37-0.14 5.02a97.248 97.248 0 0 1-1.58 13.56 79.144 79.144 0 0 1-7.31 21.61c-0.46 0.91-0.95 1.8101-1.45 2.69-1.29 0.68006-2.6 1.34-3.91 2-0.22 0.11005-0.44 0.22-0.66 0.32q-8.355 4.155-17.02 7.77a285.48 285.48 0 0 1-34.97 12.03q-3.3899 0.93-6.81 1.77-6.6749 1.65-13.48 2.99a290.07 290.07 0 0 1-56.06 5.44c-1.25 0-2.49-0.01-3.74-0.02-0.38 0-0.76-0.01-1.15-0.02-1.1-0.02-2.24-0.04-3.4-0.07a288.59 288.59 0 0 1-65.84-9.49q-2.565-0.675-5.11-1.4a286.16 286.16 0 0 1-47.52-18.22c-16.78-34.53-13.63-52.97-16.67-94.85 6.24-15.59 111.81-4.58 193.09 13.03 22.06 4.78 42.32 10.05 58.33 15.41 16.54 5.53 28.53 11.15 33.23 16.43a7.9373 7.9373 0 0 1 2.17 3.9999z" fill="#2f2e41"/>
 <path transform="translate(-159.92 -161.86)" d="m237.41 621.24c-0.15527-2.5927-0.32885-5.2709-0.53131-8.0599 10.14-25.32 282.23 19.51 286.82 48.87-0.01264 2.6918-0.12775 5.3041-0.32129 7.8546-11.116-28.978-269.6-71.586-285.97-48.665z" opacity=".2"/>
</svg>
